<svg xmlns="http://www.w3.org/2000/svg" viewBox="0 0 1081.33 928.56"><defs><style>.cls-1{fill:#ffc107;}.cls-2{fill:#fff;}.cls-3{fill:#ffe5ab;}</style></defs><g id="Lager_2" data-name="Lager 2"><g id="Lager_1-2" data-name="Lager 1"><path class="cls-1" d="M167.69.31H912.37c.49,0,1,0,1.47,0,11-.76,165.05-8.48,165.05,156V510.67a20.77,20.77,0,0,1-20.77,20.77H984.34a20.79,20.79,0,0,1-13.64-5.11L831.37,405a20.76,20.76,0,0,0-13.64-5.1H761A20.72,20.72,0,0,0,746.34,406L601.43,550.86a20.77,20.77,0,0,1-29.37,0l-76.69-76.68a20.73,20.73,0,0,0-14.68-6.09H424.8a20.75,20.75,0,0,0-14.68,6.09L288.28,596a20.76,20.76,0,0,1-14.68,6.08H22.79A20.76,20.76,0,0,1,2,581.33V153.26a20.47,20.47,0,0,1,.37-3.91C5.9,131.42,36,.31,167.69.31Z"/><circle class="cls-2" cx="311.44" cy="295.11" r="112.07"/><path class="cls-3" d="M15.52,738.53H339.13a15.49,15.49,0,0,0,11-4.54l84.38-84.39a15.52,15.52,0,0,1,21.93,0l82,81.95a15.49,15.49,0,0,0,11,4.54h67.56a15.48,15.48,0,0,0,11-4.54l158.7-158.69a15.5,15.5,0,0,1,21.93,0L908.68,673.08a15.48,15.48,0,0,0,11,4.54h146.18a15.5,15.5,0,0,1,15.51,15.5V781a15.23,15.23,0,0,1-.28,2.93c-3,15.51-31.4,144.66-145.9,144.66H165.26S9.37,924,0,754.71A15.47,15.47,0,0,1,15.52,738.53Z"/></g></g></svg>