<svg xmlns="http://www.w3.org/2000/svg" viewBox="0 0 1081.33 928.56"><defs><style>.cls-1{fill:#ffc107;}.cls-2{fill:#ffe5ab;}</style></defs><g id="Lager_2" data-name="Lager 2"><g id="Lager_1-2" data-name="Lager 1"><path class="cls-1" d="M913.84.27c-.49,0-1,0-1.47,0H167.69C36,.31,5.9,131.42,2.39,149.35A20.47,20.47,0,0,0,2,153.26V581.33a20.76,20.76,0,0,0,20.77,20.76H273.6A20.76,20.76,0,0,0,288.28,596L410.12,474.18a20.75,20.75,0,0,1,14.68-6.09h55.89a20.73,20.73,0,0,1,14.68,6.09l76.69,76.68a20.77,20.77,0,0,0,29.37,0L746.34,406A20.72,20.72,0,0,1,761,399.88h56.71a20.76,20.76,0,0,1,13.64,5.1L970.7,526.33a20.79,20.79,0,0,0,13.64,5.11h73.78a20.77,20.77,0,0,0,20.77-20.77V156.24C1078.89-8.21,924.84-.49,913.84.27ZM311.44,407.18A112.07,112.07,0,1,1,423.51,295.11,112.06,112.06,0,0,1,311.44,407.18Z"/><path class="cls-2" d="M15.52,738.53H339.13a15.49,15.49,0,0,0,11-4.54l84.38-84.39a15.52,15.52,0,0,1,21.93,0l82,81.95a15.49,15.49,0,0,0,11,4.54h67.56a15.48,15.48,0,0,0,11-4.54l158.7-158.69a15.5,15.5,0,0,1,21.93,0L908.68,673.08a15.48,15.48,0,0,0,11,4.54h146.18a15.5,15.5,0,0,1,15.51,15.5V781a15.23,15.23,0,0,1-.28,2.93c-3,15.51-31.4,144.66-145.9,144.66H165.26S9.37,924,0,754.71A15.47,15.47,0,0,1,15.52,738.53Z"/></g></g></svg>