<svg xmlns="http://www.w3.org/2000/svg" viewBox="0 0 1186.1 741.25"><defs><style>.cls-1{fill:#ffc107;}.cls-2{fill:#ffb600;}</style></defs><g id="Lager_2" data-name="Lager 2"><g id="Lager_1-2" data-name="Lager 1"><circle class="cls-1" cx="192" cy="54" r="54"/><rect class="cls-1" y="215" width="196" height="102" rx="51"/><rect class="cls-1" x="127" y="639" width="164" height="102" rx="51"/><path class="cls-1" d="M1067,108C961.29,4.73,859.46,0,711.68,0H377.05a74.82,74.82,0,0,0-51.64,20.26c-21.62,20.59-16.76,40.8-5.57,56.42,13.37,18.67,35.29,29.3,58.25,29.08l55.48-.53A79.75,79.75,0,0,1,491,128.36c22.47,22.58,15.33,43.55,1.92,59.21A79.69,79.69,0,0,1,432.25,215H322.05a60.28,60.28,0,0,0-47.57,22.78c-13.51,17.28-11.29,33.89-4,47.47,11,20.41,32.71,32.75,55.9,32.75h29.29a79.6,79.6,0,0,1,55,21.63c34.7,33.07,4.39,64.84-16.62,80.77A52.19,52.19,0,0,1,362.53,431H262.89A67.63,67.63,0,0,0,213,452.49c-18.59,20.21-12.57,38.7-1.32,52.43a67.19,67.19,0,0,0,51.6,24.25c34.14.23,101.07.55,138.69-.17,52-1,108,57,0,114-63,33.25-52.5,61.06-32.81,78.45A79.33,79.33,0,0,0,421.8,741H701.93c148.69,0,259.87,10,363.07-97C1253,449,1197,235,1067,108ZM797,545A174,174,0,1,1,971,371,174,174,0,0,1,797,545Z"/><polygon class="cls-2" points="761 302 761 441 880 371 761 302"/></g></g></svg>